<svg width="183" height="109" viewBox="0 0 183 109" fill="none" xmlns="http://www.w3.org/2000/svg">
<rect width="183" height="109" fill="black"/>
<path d="M49.552 53.168C50.9173 53.168 52.1013 53.4347 53.104 53.968C54.128 54.48 54.9173 55.2693 55.472 56.336C56.048 57.3813 56.336 58.6827 56.336 60.24V70H54.736V60.368C54.736 58.4907 54.256 57.0613 53.296 56.08C52.3573 55.0987 51.0347 54.608 49.328 54.608C48.0267 54.608 46.896 54.8747 45.936 55.408C44.976 55.9413 44.24 56.688 43.728 57.648C43.2373 58.608 42.992 59.76 42.992 61.104V70H41.392V53.296H42.928V57.936L42.704 57.424C43.216 56.1013 44.0587 55.0667 45.232 54.32C46.4053 53.552 47.8453 53.168 49.552 53.168ZM67.7873 70.128C66.3153 70.128 65.1846 69.7227 64.3953 68.912C63.6273 68.1013 63.2433 66.992 63.2433 65.584V49.648H64.8433V65.424C64.8433 66.4907 65.1099 67.312 65.6433 67.888C66.1766 68.464 66.9446 68.752 67.9473 68.752C68.9926 68.752 69.8566 68.4427 70.5393 67.824L71.2113 68.944C70.7846 69.3493 70.2619 69.648 69.6433 69.84C69.0459 70.032 68.4273 70.128 67.7873 70.128ZM60.1713 54.672V53.296H70.1553V54.672H60.1713ZM75.6733 70V53.296H77.2093V57.872L77.0493 57.36C77.5186 56.016 78.3079 54.9813 79.4173 54.256C80.5266 53.5307 81.9133 53.168 83.5773 53.168V54.736C83.5133 54.736 83.4493 54.736 83.3853 54.736C83.3213 54.7147 83.2573 54.704 83.1933 54.704C81.3373 54.704 79.8866 55.2907 78.8413 56.464C77.7959 57.616 77.2733 59.2267 77.2733 61.296V70H75.6733ZM94.3575 70.128C92.7575 70.128 91.3282 69.7653 90.0695 69.04C88.8322 68.3147 87.8402 67.312 87.0935 66.032C86.3682 64.752 86.0055 63.2907 86.0055 61.648C86.0055 59.984 86.3682 58.5227 87.0935 57.264C87.8402 55.984 88.8322 54.9813 90.0695 54.256C91.3282 53.5307 92.7575 53.168 94.3575 53.168C95.9575 53.168 97.3868 53.5307 98.6455 54.256C99.9042 54.9813 100.896 55.984 101.622 57.264C102.347 58.5227 102.71 59.984 102.71 61.648C102.71 63.2907 102.347 64.752 101.622 66.032C100.896 67.312 99.9042 68.3147 98.6455 69.04C97.3868 69.7653 95.9575 70.128 94.3575 70.128ZM94.3575 68.688C95.6375 68.688 96.7895 68.4 97.8135 67.824C98.8375 67.2267 99.6375 66.3947 100.214 65.328C100.79 64.2613 101.078 63.0347 101.078 61.648C101.078 60.24 100.79 59.0133 100.214 57.968C99.6375 56.9013 98.8375 56.08 97.8135 55.504C96.7895 54.9067 95.6375 54.608 94.3575 54.608C93.0775 54.608 91.9255 54.9067 90.9015 55.504C89.8988 56.08 89.0988 56.9013 88.5015 57.968C87.9255 59.0133 87.6375 60.24 87.6375 61.648C87.6375 63.0347 87.9255 64.2613 88.5015 65.328C89.0988 66.3947 89.8988 67.2267 90.9015 67.824C91.9255 68.4 93.0775 68.688 94.3575 68.688ZM116.057 70.128C114.585 70.128 113.252 69.7867 112.057 69.104C110.884 68.4213 109.945 67.4507 109.241 66.192C108.559 64.912 108.217 63.3973 108.217 61.648C108.217 59.8987 108.559 58.3947 109.241 57.136C109.945 55.856 110.884 54.8747 112.057 54.192C113.252 53.5093 114.585 53.168 116.057 53.168C117.636 53.168 119.044 53.5307 120.281 54.256C121.54 54.96 122.521 55.952 123.225 57.232C123.951 58.512 124.313 59.984 124.313 61.648C124.313 63.312 123.951 64.784 123.225 66.064C122.521 67.344 121.54 68.3467 120.281 69.072C119.044 69.776 117.636 70.128 116.057 70.128ZM107.673 76.208V53.296H109.209V58.768L108.953 61.68L109.273 64.592V76.208H107.673ZM115.961 68.688C117.241 68.688 118.393 68.4 119.417 67.824C120.441 67.2267 121.241 66.3947 121.817 65.328C122.415 64.2613 122.713 63.0347 122.713 61.648C122.713 60.24 122.415 59.0133 121.817 57.968C121.241 56.9013 120.441 56.08 119.417 55.504C118.393 54.9067 117.241 54.608 115.961 54.608C114.681 54.608 113.529 54.9067 112.505 55.504C111.503 56.08 110.703 56.9013 110.105 57.968C109.529 59.0133 109.241 60.24 109.241 61.648C109.241 63.0347 109.529 64.2613 110.105 65.328C110.703 66.3947 111.503 67.2267 112.505 67.824C113.529 68.4 114.681 68.688 115.961 68.688ZM128.414 76.336C127.646 76.336 126.921 76.208 126.238 75.952C125.577 75.696 125.012 75.3227 124.542 74.832L125.342 73.616C125.769 74.064 126.228 74.3947 126.718 74.608C127.23 74.8213 127.806 74.928 128.446 74.928C129.214 74.928 129.886 74.7147 130.462 74.288C131.06 73.8613 131.614 73.0827 132.126 71.952L133.278 69.392L133.502 69.104L140.574 53.296H142.206L133.63 72.272C133.182 73.296 132.692 74.096 132.158 74.672C131.646 75.2693 131.081 75.696 130.462 75.952C129.844 76.208 129.161 76.336 128.414 76.336ZM133.246 70.416L125.502 53.296H127.198L134.238 69.008L133.246 70.416Z" fill="white"/>
<path d="M21 50H34.5" stroke="#F1F1F1" stroke-width="2" stroke-linecap="square"/>
<path d="M21 59.8518H34.5" stroke="#F1F1F1" stroke-width="2" stroke-linecap="square"/>
<path d="M21 69H34.5" stroke="#F1F1F1" stroke-width="2" stroke-linecap="square"/>
<path d="M28.056 93.12C26.808 93.12 25.648 92.912 24.576 92.496C23.52 92.064 22.592 91.464 21.792 90.696C21.008 89.912 20.4 89.008 19.968 87.984C19.536 86.944 19.32 85.816 19.32 84.6C19.32 83.384 19.536 82.264 19.968 81.24C20.4 80.2 21.008 79.296 21.792 78.528C22.592 77.744 23.52 77.144 24.576 76.728C25.648 76.296 26.808 76.08 28.056 76.08C29.304 76.08 30.456 76.296 31.512 76.728C32.584 77.144 33.512 77.736 34.296 78.504C35.08 79.272 35.688 80.176 36.12 81.216C36.568 82.24 36.792 83.368 36.792 84.6C36.792 85.832 36.568 86.968 36.12 88.008C35.688 89.032 35.08 89.928 34.296 90.696C33.512 91.464 32.584 92.064 31.512 92.496C30.456 92.912 29.304 93.12 28.056 93.12ZM28.056 91.992C29.128 91.992 30.12 91.808 31.032 91.44C31.944 91.072 32.736 90.552 33.408 89.88C34.08 89.208 34.6 88.424 34.968 87.528C35.352 86.632 35.544 85.656 35.544 84.6C35.544 83.528 35.352 82.552 34.968 81.672C34.6 80.776 34.08 79.992 33.408 79.32C32.736 78.648 31.944 78.128 31.032 77.76C30.12 77.392 29.128 77.208 28.056 77.208C26.984 77.208 25.992 77.392 25.08 77.76C24.168 78.128 23.368 78.648 22.68 79.32C22.008 79.992 21.48 80.776 21.096 81.672C20.728 82.552 20.544 83.528 20.544 84.6C20.544 85.656 20.728 86.632 21.096 87.528C21.48 88.424 22.008 89.208 22.68 89.88C23.368 90.552 24.168 91.072 25.08 91.44C25.992 91.808 26.984 91.992 28.056 91.992ZM46.7734 80.376C47.7974 80.376 48.6854 80.576 49.4374 80.976C50.2054 81.36 50.7974 81.952 51.2134 82.752C51.6454 83.536 51.8614 84.512 51.8614 85.68V93H50.6614V85.776C50.6614 84.368 50.3014 83.296 49.5814 82.56C48.8774 81.824 47.8854 81.456 46.6054 81.456C45.6294 81.456 44.7814 81.656 44.0614 82.056C43.3414 82.456 42.7894 83.016 42.4054 83.736C42.0374 84.456 41.8534 85.32 41.8534 86.328V93H40.6534V80.472H41.8054V83.952L41.6374 83.568C42.0214 82.576 42.6534 81.8 43.5334 81.24C44.4134 80.664 45.4934 80.376 46.7734 80.376ZM61.8898 93.096C60.6258 93.096 59.5058 92.824 58.5298 92.28C57.5698 91.736 56.8098 90.984 56.2498 90.024C55.7058 89.064 55.4338 87.968 55.4338 86.736C55.4338 85.488 55.6898 84.392 56.2018 83.448C56.7298 82.488 57.4498 81.736 58.3618 81.192C59.2738 80.648 60.2978 80.376 61.4338 80.376C62.5698 80.376 63.5858 80.64 64.4818 81.168C65.3938 81.696 66.1058 82.44 66.6178 83.4C67.1458 84.344 67.4098 85.44 67.4098 86.688C67.4098 86.736 67.4018 86.792 67.3858 86.856C67.3858 86.904 67.3858 86.96 67.3858 87.024H56.3218V86.088H66.7378L66.2578 86.544C66.2738 85.568 66.0658 84.696 65.6338 83.928C65.2178 83.144 64.6498 82.536 63.9298 82.104C63.2098 81.656 62.3778 81.432 61.4338 81.432C60.5058 81.432 59.6738 81.656 58.9378 82.104C58.2178 82.536 57.6498 83.144 57.2338 83.928C56.8178 84.696 56.6098 85.576 56.6098 86.568V86.784C56.6098 87.808 56.8338 88.72 57.2818 89.52C57.7458 90.304 58.3778 90.92 59.1778 91.368C59.9778 91.8 60.8898 92.016 61.9138 92.016C62.7138 92.016 63.4578 91.872 64.1458 91.584C64.8498 91.296 65.4418 90.856 65.9218 90.264L66.6178 91.056C66.0738 91.728 65.3858 92.24 64.5538 92.592C63.7378 92.928 62.8498 93.096 61.8898 93.096Z" fill="white"/>
</svg>
