<svg width="78" height="49" viewBox="0 0 78 49" fill="none" xmlns="http://www.w3.org/2000/svg">
<path d="M59.0433 8.19048C59.0433 8.19048 66.4743 5.09952 67.557 5.39827C68.6397 5.69703 66.6093 11.7775 66.3393 12.1758C66.0693 12.5741 59.0433 8.19048 59.0433 8.19048Z" fill="#FFA34F" stroke="#263238" stroke-linecap="round" stroke-linejoin="round"/>
<path d="M67.1493 6.19678C67.1493 6.19678 66.8273 6.56639 66.4171 7.09879C65.7004 8.02952 64.719 9.45819 64.719 10.2836C64.719 11.5782 65.7991 11.4786 66.0691 10.4751L67.0142 7.58331" stroke="#263238" stroke-linecap="round" stroke-linejoin="round"/>
<path d="M4.68952 24.4076C6.72719 24.4076 8.37905 22.8214 8.37905 20.8647C8.37905 18.908 6.72719 17.3218 4.68952 17.3218C2.65186 17.3218 1 18.908 1 20.8647C1 22.8214 2.65186 24.4076 4.68952 24.4076Z" fill="#FFA34F" stroke="#263238" stroke-linecap="round" stroke-linejoin="round"/>
<path d="M38.1316 46.2876C57.5475 46.2876 73.2872 36.459 73.2872 24.3348C73.2872 12.2107 57.5475 2.38208 38.1316 2.38208C18.7157 2.38208 2.97595 12.2107 2.97595 24.3348C2.97595 36.459 18.7157 46.2876 38.1316 46.2876Z" fill="#FFA34F" stroke="#263238" stroke-linecap="round" stroke-linejoin="round"/>
<path d="M60.9646 39.4681C54.9928 42.9765 46.9698 45.1272 38.1316 45.1272C22.3583 45.1272 9.14507 38.2769 5.7074 29.0806" fill="#FFA34F"/>
<path d="M60.9646 39.4681C54.9928 42.9765 46.9698 45.1272 38.1316 45.1272C22.3583 45.1272 9.14507 38.2769 5.7074 29.0806" stroke="#263238" stroke-width="2" stroke-linecap="round" stroke-linejoin="round"/>
<path d="M4.85582 25.0242C4.84284 24.7963 4.83765 24.5665 4.83765 24.3347C4.83851 21.8278 5.55139 19.3487 6.93037 17.0574" fill="#FFA34F"/>
<path d="M4.85582 25.0242C4.84284 24.7963 4.83765 24.5665 4.83765 24.3347C4.83851 21.8278 5.55139 19.3487 6.93037 17.0574" stroke="#263238" stroke-width="2" stroke-linecap="round" stroke-linejoin="round"/>
<path d="M27.5745 4.79881C34.4925 3.35613 41.8173 3.35613 48.7353 4.79881" stroke="#263238" stroke-width="5" stroke-linecap="round" stroke-linejoin="round"/>
<path d="M71.3398 17.5593C71.3398 17.5593 75.8004 16.462 76.4755 17.0614C77.1506 17.6608 77.1506 24.6356 76.6105 25.9322C76.0705 27.2287 72.4199 26.928 69.8598 25.5338C69.1259 25.1537 68.5318 24.6448 68.1311 24.053C67.7304 23.4612 67.5357 22.8052 67.5646 22.1441" fill="#FFA34F"/>
<path d="M71.3398 17.5593C71.3398 17.5593 75.8004 16.462 76.4755 17.0614C77.1506 17.6608 77.1506 24.6356 76.6105 25.9322C76.0705 27.2287 72.4199 26.928 69.8598 25.5338C69.1259 25.1537 68.5318 24.6448 68.1311 24.053C67.7304 23.4612 67.5357 22.8052 67.5646 22.1441" stroke="#263238" stroke-linecap="round" stroke-linejoin="round"/>
<path d="M68.637 21.8455L65.9341 22.1442" stroke="#263238" stroke-linecap="round" stroke-linejoin="round"/>
<path d="M67.9617 24.0378C67.9617 24.0378 67.2866 27.5271 68.0967 27.6267C68.9068 27.7263 70.2595 25.9319 70.2595 25.9319C70.2595 25.9319 68.3667 24.3366 67.9617 24.0378Z" fill="#263238" stroke="#263238" stroke-linecap="round" stroke-linejoin="round"/>
<path d="M65.503 15.8663C65.7627 16.5844 65.6043 17.2356 65.1707 17.3179C64.7371 17.4003 64.1841 16.8832 63.9322 16.1688C63.6804 15.4545 63.8309 14.7995 64.2645 14.7172C64.6982 14.6348 65.2538 15.1462 65.503 15.8663Z" fill="#263238"/>
<path d="M51.303 6.20652C51.303 6.20652 59.8063 -0.0654206 61.4654 1.15833C63.1245 2.38207 62.504 7.73669 62.504 8.50273V10.6438" fill="#FFA34F"/>
<path d="M51.303 6.20652C51.303 6.20652 59.8063 -0.0654206 61.4654 1.15833C63.1245 2.38207 62.504 7.73669 62.504 8.50273V10.6438" stroke="#263238" stroke-linecap="round" stroke-linejoin="round"/>
<path d="M61.7458 2.50826C61.7458 2.50826 61.8808 0.912982 60.9331 1.91075C59.9855 2.90851 57.2852 9.78371 58.0952 10.5823C58.9053 11.3809 61.211 10.9806 61.7458 9.48496C62.2807 7.98927 61.8808 3.70328 61.8808 3.70328" stroke="#263238" stroke-linecap="round" stroke-linejoin="round"/>
<path d="M15.1997 38.8857L19.8525 48.1606H24.9882L27.2835 43.3747" fill="#FFA34F"/>
<path d="M15.1997 38.8857L19.8525 48.1606H24.9882L27.2835 43.3747" stroke="#263238" stroke-linecap="round" stroke-linejoin="round"/>
<path d="M58.0954 40.0867L53.6373 48.1607H48.5016L46.2037 43.3749" fill="#FFA34F"/>
<path d="M58.0954 40.0867L53.6373 48.1607H48.5016L46.2037 43.3749" stroke="#263238" stroke-linecap="round" stroke-linejoin="round"/>
<path d="M36.4154 35.2088V33.2726C34.4785 33.2164 33.0305 32.7587 32.0716 31.8995C31.1126 31.0402 30.5933 29.7571 30.5137 28.0501L34.494 27.5503C34.5111 28.1353 34.6103 28.7174 34.79 29.2873C34.8948 29.6763 35.1438 30.0363 35.5092 30.3272C35.6743 30.443 35.8692 30.5332 36.0824 30.5925C36.2956 30.6517 36.5227 30.6787 36.7503 30.6719C37.3319 30.6719 37.7318 30.534 37.9499 30.2544C38.1716 29.9622 38.2836 29.6317 38.2744 29.2969C38.3038 28.6677 38.0719 28.047 37.6098 27.5177C37.0929 26.9788 36.4818 26.4926 35.7923 26.0718L33.3932 24.5513C32.8698 24.1929 32.3797 23.8091 31.9262 23.4022C31.4812 23.0011 31.1302 22.548 30.8876 22.0616C30.6179 21.4934 30.4886 20.894 30.5059 20.2921C30.5059 18.9898 31.0096 17.9742 32.0171 17.2452C33.0245 16.5161 34.3737 16.1031 36.0649 16.0061V14.1733H37.441V16.0252C38.3174 16.0383 39.1754 16.2134 39.9362 16.5347C40.5529 16.8094 41.0634 17.1965 41.4187 17.6588C41.7623 18.1216 42.0091 18.6201 42.1509 19.1373C42.2943 19.6474 42.3863 20.1646 42.4261 20.6847L38.3913 21.1213C38.3798 20.6644 38.3234 20.2087 38.2225 19.7578C38.1587 19.4219 37.98 19.1036 37.7032 18.8328C37.5635 18.7175 37.3881 18.6289 37.1918 18.5745C36.9956 18.5202 36.7844 18.5017 36.5764 18.5206C36.3408 18.5182 36.108 18.5586 35.8988 18.6385C35.6895 18.7183 35.5102 18.8351 35.3768 18.9783C35.1054 19.2651 34.962 19.6072 34.9666 19.9569C34.9325 20.505 35.1523 21.0453 35.5897 21.489C36.0191 21.8904 36.4905 22.2662 36.9996 22.6132L39.3364 24.1108C39.965 24.5294 40.5468 24.9847 41.076 25.4724C41.605 25.9613 42.0329 26.5054 42.3456 27.0868C42.6785 27.7329 42.8398 28.4201 42.8208 29.1111C42.8331 29.8059 42.625 30.4932 42.2132 31.1181C41.8198 31.7144 41.2162 32.2217 40.4658 32.587C39.6577 32.9724 38.7306 33.201 37.7707 33.2515V35.2088H36.4154Z" fill="#263238"/>
</svg>
